<?xml version="1.0" standalone="no"?>
<!DOCTYPE svg PUBLIC "-//W3C//DTD SVG 20010904//EN"
 "http://www.w3.org/TR/2001/REC-SVG-20010904/DTD/svg10.dtd">
<svg version="1.0" xmlns="http://www.w3.org/2000/svg"
 width="16.000000pt" height="16.000000pt" viewBox="0 0 16.000000 16.000000"
 preserveAspectRatio="xMidYMid meet">
<metadata>
Created by potrace 1.11, written by Peter Selinger 2001-2013
</metadata>
<g transform="translate(0.000000,16.000000) scale(0.009040,-0.009040)"
fill="#000000" stroke="none">
<path d="M345 1525 c-40 -39 -29 -106 20 -125 15 -6 35 -31 51 -62 27 -52 47
-128 35 -128 -4 0 -21 -13 -39 -29 -25 -24 -32 -38 -32 -69 0 -21 7 -47 15
-58 13 -17 13 -15 3 17 -14 49 -5 80 32 107 l30 22 30 -32 c17 -18 42 -54 57
-80 23 -39 33 -47 63 -51 19 -2 44 2 55 9 17 11 32 10 95 -6 41 -11 83 -20 93
-20 36 0 14 38 -73 125 -49 49 -88 91 -86 93 9 8 66 -30 60 -40 -4 -7 -3 -8 4
-4 6 4 9 13 6 20 -5 14 -66 46 -87 46 -13 0 -67 50 -67 62 0 16 108 -15 158
-46 76 -48 101 -47 146 6 20 23 36 46 36 51 0 5 -18 -11 -41 -37 -22 -25 -47
-46 -56 -46 -8 0 -45 18 -83 41 -51 30 -83 42 -127 46 -53 5 -62 10 -109 55
-39 38 -53 60 -58 89 -11 68 -84 92 -131 44z"/>
<path d="M1019 1435 c-24 -13 -59 -55 -59 -70 0 -4 12 3 26 14 15 12 40 21 58
20 l31 -1 -34 -8 c-18 -4 -43 -18 -55 -29 -18 -19 -19 -23 -6 -31 24 -15 119
-12 155 6 28 13 85 72 85 87 0 4 -27 8 -140 23 -20 2 -46 -2 -61 -11z"/>
<path d="M72 1058 c3 -7 15 -15 27 -16 16 -3 22 1 19 10 -3 7 -15 15 -27 16
-16 3 -22 -1 -19 -10z"/>
<path d="M153 1023 c-41 -4 -54 -15 -33 -28 24 -15 7 -24 -20 -10 -35 18 -41
5 -14 -33 17 -25 42 -29 50 -7 5 13 8 13 27 0 24 -17 117 -21 117 -5 0 6 -15
19 -32 30 -18 11 -26 20 -18 20 9 0 26 -7 39 -16 22 -16 23 -16 13 3 -23 42
-55 53 -129 46z"/>
<path d="M458 1005 c17 -15 32 -31 32 -37 0 -7 -10 -2 -22 9 -13 11 -34 24
-47 28 -23 7 -24 6 -18 -30 9 -56 52 -114 100 -136 55 -25 92 -25 82 -1 -4 9
-12 35 -17 57 -20 81 -51 116 -113 129 l-30 7 33 -26z"/>
<path d="M311 1001 c-24 -15 3 -59 45 -77 20 -8 38 -13 40 -11 2 2 -3 21 -12
43 -22 52 -42 65 -73 45z"/>
<path d="M967 985 c-48 -16 -61 -28 -81 -69 -20 -43 -21 -76 0 -76 8 0 12 -5
8 -11 -4 -8 1 -9 17 -4 43 13 69 35 74 63 3 15 9 45 14 67 5 22 9 41 8 42 -1
0 -19 -5 -40 -12z"/>
<path d="M1633 989 c-155 -30 -271 -155 -289 -312 -6 -52 -5 -57 12 -57 29 1
97 35 120 61 12 13 31 42 42 64 26 50 28 25 3 -30 -21 -44 -61 -86 -106 -109
l-30 -16 36 0 c125 0 228 106 229 234 0 17 12 63 25 101 14 39 25 71 25 73 0
3 -20 1 -67 -9z"/>
<path d="M706 936 c-20 -43 -21 -108 0 -147 8 -17 13 -33 10 -36 -2 -3 -14 14
-27 38 -17 35 -21 54 -16 106 2 35 3 63 0 63 -2 0 -18 -30 -35 -66 -26 -55
-30 -73 -25 -114 7 -57 24 -87 83 -150 24 -25 54 -64 67 -88 l24 -43 22 34
c51 84 65 191 36 278 -15 44 -97 159 -114 159 -5 0 -16 -15 -25 -34z"/>
<path d="M593 943 c-17 -6 -16 -48 0 -62 17 -13 27 -5 27 23 0 28 -12 44 -27
39z"/>
<path d="M1391 924 c-23 -29 -20 -44 8 -44 21 0 36 15 45 48 10 32 -27 30 -53
-4z"/>
<path d="M1170 916 c0 -18 39 -56 57 -56 14 0 18 46 6 53 -5 2 -20 7 -35 11
-21 5 -28 3 -28 -8z"/>
<path d="M1280 903 c-11 -14 -20 -33 -20 -42 0 -19 42 -121 51 -121 12 0 49
80 49 106 -1 37 -23 77 -44 80 -9 1 -25 -9 -36 -23z"/>
<path d="M78 903 l-27 -4 40 -52 c49 -61 80 -122 109 -208 59 -179 169 -260
348 -258 48 1 101 4 117 8 28 6 27 7 -18 14 -62 9 -142 48 -188 93 -36 35 -86
121 -76 131 3 2 12 -8 21 -25 24 -47 111 -119 167 -137 47 -16 140 -17 155 -3
8 9 -42 135 -77 194 -44 73 -143 165 -212 198 -101 47 -242 67 -359 49z"/>
<path d="M1060 881 c-74 -23 -127 -69 -159 -141 -27 -60 -27 -90 -1 -90 34 0
80 29 100 63 12 19 20 25 20 16 0 -24 -37 -67 -78 -90 l-37 -20 48 5 c91 11
135 53 157 151 6 28 20 65 30 83 l19 32 -37 -1 c-20 0 -48 -4 -62 -8z"/>
<path d="M1156 798 c10 -88 15 -105 37 -126 12 -11 35 -26 51 -32 26 -9 28 -9
16 5 -11 13 -9 15 11 13 22 -3 24 0 22 36 -2 21 -11 53 -21 70 -20 35 -76 76
-103 76 -14 0 -16 -7 -13 -42z"/>
<path d="M1133 709 c-16 -16 -17 -49 -3 -49 13 0 23 24 18 45 -2 13 -5 14 -15
4z"/>
<path d="M1060 629 c-110 -18 -256 -113 -317 -206 -16 -24 -16 -26 3 -37 87
-51 197 -43 282 21 49 37 50 21 1 -20 -60 -52 -124 -71 -217 -65 l-76 5 70
-35 c58 -30 82 -36 151 -40 115 -6 164 19 270 135 43 48 104 103 136 124 l58
38 -48 25 c-98 49 -217 70 -313 55z"/>
<path d="M855 589 c-4 -11 -4 -23 -1 -26 8 -9 47 28 40 38 -10 16 -33 9 -39
-12z"/>
<path d="M1493 590 c-12 -5 -27 -18 -33 -29 -9 -19 -8 -21 15 -21 37 0 65 17
65 40 0 21 -12 24 -47 10z"/>
<path d="M1372 499 c-43 -22 -74 -56 -92 -103 -13 -35 7 -44 51 -22 18 9 34
14 36 12 6 -5 -20 -23 -52 -34 -30 -10 -30 -10 12 -11 65 -1 89 15 125 86 18
35 36 67 40 69 4 3 8 9 8 15 0 17 -85 9 -128 -12z"/>
<path d="M568 354 c-36 -19 -35 -25 1 -18 16 3 37 1 48 -6 16 -10 16 -11 -5
-6 -26 5 -82 -11 -82 -25 0 -17 79 -61 119 -66 40 -5 124 17 136 37 3 4 -10
18 -28 29 -17 12 -47 32 -66 46 -38 28 -82 32 -123 9z"/>
<path d="M1210 343 c-25 -32 -25 -43 -1 -43 18 0 51 34 51 51 0 20 -32 15 -50
-8z"/>
</g>
</svg>
